<svg height="512pt" viewBox="0 0 512 512" width="512pt" xmlns="http://www.w3.org/2000/svg"><path d="m512 70.621094-70.621094-70.621094h-370.757812l-70.621094 70.621094zm0 0" fill="#f29c1f"/><path d="m0 70.621094h512v423.722656c0 9.75-7.90625 17.65625-17.65625 17.65625h-476.6875c-9.75 0-17.65625-7.90625-17.65625-17.65625zm0 0" fill="#f0c419"/><path d="m459.035156 397.242188c0 43.878906-35.570312 79.449218-79.449218 79.449218-43.878907 0-79.449219-35.570312-79.449219-79.449218.015625-5.910157.667969-11.796876 1.941406-17.566407 8.308594 36.113281 40.453125 61.703125 77.507813 61.703125 37.054687 0 69.203124-25.589844 77.507812-61.703125 1.273438 5.769531 1.925781 11.65625 1.941406 17.566407zm0 0" fill="#e57e25"/><path d="m457.09375 379.585938v.089843c-8.304688 36.113281-40.453125 61.703125-77.507812 61.703125-37.054688 0-69.199219-25.589844-77.507813-61.703125v-.089843c8.261719-36.152344 40.421875-61.792969 77.507813-61.792969 37.085937 0 69.246093 25.640625 77.507812 61.792969zm0 0" fill="#35495e"/><path d="m189.351562 441.378906-10.679687 29.484375c-1.25 3.507813-4.578125 5.84375-8.300781 5.828125h-75.914063c-3.726562.015625-7.054687-2.320312-8.300781-5.828125l-10.679688-29.484375zm0 0" fill="#e57e25"/><path d="m209.65625 385.589844-20.304688 55.789062h-113.875l-20.304687-55.789062c-1.308594-3.585938-.171875-7.609375 2.824219-9.976563l69.03125-53.582031c3.167968-2.472656 7.605468-2.472656 10.769531 0l69.035156 53.582031c2.992188 2.367188 4.132813 6.390625 2.824219 9.976563zm0 0" fill="#35495e"/><path d="m417.28125 263.503906-32.839844-18.183594c-3.019531-1.679687-6.691406-1.679687-9.710937 0l-32.839844 18.183594c-3.363281 1.875-7.503906 1.65625-10.648437-.566406-3.144532-2.222656-4.738282-6.054688-4.09375-9.851562l3.621093-22.15625 44.402344-25.421876c2.75-1.503906 6.078125-1.503906 8.828125 0l44.402344 25.421876 3.621094 22.15625c.644531 3.796874-.945313 7.628906-4.09375 9.851562-3.144532 2.222656-7.285157 2.441406-10.648438.566406zm0 0" fill="#e57e25"/><path d="m428.226562 204.359375c-2.230468 2.285156-3.246093 5.496094-2.738281 8.648437l2.914063 17.921876-44.402344-25.421876c-2.75-1.503906-6.078125-1.503906-8.828125 0l-44.402344 25.421876 2.914063-17.921876c.507812-3.152343-.507813-6.363281-2.738282-8.648437l-27.984374-28.777344c-2.617188-2.726562-3.503907-6.679687-2.296876-10.261719 1.203126-3.582031 4.304688-6.191406 8.035157-6.777343l37.695312-5.738281c3.335938-.507813 6.191407-2.664063 7.589844-5.738282l16.507813-35.308594c1.632812-3.550781 5.183593-5.828124 9.09375-5.828124 3.910156 0 7.460937 2.277343 9.09375 5.828124l16.507812 35.308594c1.398438 3.074219 4.253906 5.230469 7.589844 5.738282l37.695312 5.738281c3.734375.585937 6.832032 3.195312 8.035156 6.777343 1.207032 3.582032.320313 7.535157-2.296874 10.261719zm0 0" fill="#35495e"/><path d="m211.863281 229.515625v26.484375c-.015625 4.871094-3.960937 8.8125-8.828125 8.828125h-141.242187c-4.871094-.015625-8.8125-3.957031-8.828125-8.828125v-26.484375zm0 0" fill="#e57e25"/><path d="m211.863281 114.757812v114.757813h-158.898437v-114.757813c.015625-4.867187 3.957031-8.8125 8.828125-8.828124h141.242187c4.867188.015624 8.8125 3.960937 8.828125 8.828124zm0 0" fill="#35495e"/><path d="m397.242188 44.136719h-282.484376c-4.875 0-8.828124-3.949219-8.828124-8.828125 0-4.875 3.953124-8.824219 8.828124-8.824219h282.484376c4.875 0 8.828124 3.949219 8.828124 8.824219 0 4.878906-3.953124 8.828125-8.828124 8.828125zm0 0" fill="#e57e25"/></svg>